<?xml version="1.0" encoding="utf-8"?>
<svg width="684" height="147" viewBox="0 0 228 49" fill="none" xmlns="http://www.w3.org/2000/svg">
  <rect x="0.5" y="0.5" width="227" height="48" rx="3.5" fill="white" stroke="url(#paint0_linear_1810_46)"/>
  <path d="M51.3703 12C48.4634 12 45.2947 13.5165 41.9454 16.5037C40.3565 17.9191 38.9842 19.4357 37.9551 20.6489C37.9551 20.6489 37.9551 20.6489 37.9641 20.6581V20.6489C37.9641 20.6489 39.5891 22.4504 41.3856 24.3805C42.3516 23.2133 43.7419 21.6232 45.3398 20.1894C48.319 17.5331 50.2599 16.9724 51.3703 16.9724C55.5502 16.9724 58.9446 20.3456 58.9446 24.4908C58.9446 28.6085 55.5412 31.9816 51.3703 32.0092C51.1808 32.0092 50.937 31.9816 50.6301 31.9173C51.8488 32.4504 53.1578 32.8364 54.4037 32.8364C62.0592 32.8364 63.5578 27.7537 63.6571 27.3861C63.8828 26.4577 64.0002 25.4835 64.0002 24.4816C64.0002 17.6066 58.3307 12 51.3703 12Z" fill="url(#paint1_linear_1810_46)"/>
  <path d="M24.6298 36.9999C27.5368 36.9999 30.7055 35.4834 34.0548 32.4962C35.6437 31.0808 37.0159 29.5642 38.0451 28.351C38.0451 28.351 38.0451 28.351 38.0361 28.3418V28.351C38.0361 28.351 36.4111 26.5495 34.6145 24.6194C33.6486 25.7867 32.2583 27.3767 30.6604 28.8106C27.6812 31.4668 25.7403 32.0275 24.6298 32.0275C20.45 32.0183 17.0555 28.6451 17.0555 24.4999C17.0555 20.3822 20.459 17.0091 24.6298 16.9815C24.8194 16.9815 25.0632 17.0091 25.3701 17.0734C24.1514 16.5403 22.8423 16.1543 21.5965 16.1543C13.941 16.1543 12.4514 21.237 12.3431 21.5955C12.1174 22.533 12 23.4981 12 24.4999C12 31.3933 17.6694 36.9999 24.6298 36.9999Z" fill="url(#paint2_linear_1810_46)"/>
  <path d="M54.3856 32.7261C50.4675 32.625 46.396 29.4816 45.5654 28.7004C43.4168 26.6783 38.4606 21.2096 38.0724 20.7776C34.4432 16.6324 29.5231 12 24.63 12H24.621H24.612C18.6717 12.0276 13.6794 16.1268 12.3433 21.5956C12.4426 21.2371 14.4016 16.0533 21.5877 16.2371C25.5057 16.3382 29.5953 19.5276 30.4349 20.3088C32.5835 22.3309 37.5398 27.7997 37.9279 28.2316C41.5571 32.3677 46.4772 37 51.3703 37H51.3793H51.3883C57.3286 36.9725 62.33 32.8732 63.6571 27.4044C63.5487 27.7629 61.5807 32.9008 54.3856 32.7261Z" fill="#29ABE2"/>
  <path d="M 107.15 18.933 L 107.15 11.805 L 106.336 11.805 C 106.16 12.575 105.489 13.158 104.499 13.202 L 104.499 13.73 L 106.248 13.73 L 106.248 18.933 L 107.15 18.933 Z M 111.338 18.273 C 110.81 18.273 110.425 18.075 110.139 17.767 C 109.666 17.272 109.468 16.447 109.468 15.369 C 109.468 14.291 109.666 13.466 110.139 12.971 C 110.425 12.663 110.81 12.465 111.338 12.465 C 111.866 12.465 112.251 12.663 112.537 12.971 C 113.01 13.466 113.208 14.291 113.208 15.369 C 113.208 16.447 113.01 17.272 112.537 17.767 C 112.251 18.075 111.866 18.273 111.338 18.273 Z M 111.338 19.087 C 112.306 19.087 112.999 18.658 113.45 17.998 C 113.945 17.283 114.11 16.337 114.11 15.369 C 114.11 14.401 113.945 13.455 113.45 12.74 C 112.999 12.08 112.306 11.651 111.338 11.651 C 110.37 11.651 109.677 12.08 109.226 12.74 C 108.731 13.455 108.566 14.401 108.566 15.369 C 108.566 16.337 108.731 17.283 109.226 17.998 C 109.677 18.658 110.37 19.087 111.338 19.087 Z M 118.074 18.273 C 117.546 18.273 117.161 18.075 116.875 17.767 C 116.402 17.272 116.204 16.447 116.204 15.369 C 116.204 14.291 116.402 13.466 116.875 12.971 C 117.161 12.663 117.546 12.465 118.074 12.465 C 118.602 12.465 118.987 12.663 119.273 12.971 C 119.746 13.466 119.944 14.291 119.944 15.369 C 119.944 16.447 119.746 17.272 119.273 17.767 C 118.987 18.075 118.602 18.273 118.074 18.273 Z M 118.074 19.087 C 119.042 19.087 119.735 18.658 120.186 17.998 C 120.681 17.283 120.846 16.337 120.846 15.369 C 120.846 14.401 120.681 13.455 120.186 12.74 C 119.735 12.08 119.042 11.651 118.074 11.651 C 117.106 11.651 116.413 12.08 115.962 12.74 C 115.467 13.455 115.302 14.401 115.302 15.369 C 115.302 16.337 115.467 17.283 115.962 17.998 C 116.413 18.658 117.106 19.087 118.074 19.087 Z M 122.576 13.411 C 122.576 12.85 122.994 12.432 123.522 12.432 C 124.072 12.432 124.479 12.85 124.479 13.411 C 124.479 13.972 124.072 14.39 123.522 14.39 C 122.994 14.39 122.576 13.972 122.576 13.411 Z M 121.806 13.411 C 121.806 14.368 122.587 15.127 123.522 15.127 C 124.468 15.127 125.26 14.368 125.26 13.411 C 125.26 12.454 124.468 11.695 123.522 11.695 C 122.587 11.695 121.806 12.454 121.806 13.411 Z M 126.932 17.272 C 126.932 16.711 127.35 16.293 127.878 16.293 C 128.428 16.293 128.835 16.711 128.835 17.272 C 128.835 17.833 128.428 18.251 127.878 18.251 C 127.35 18.251 126.932 17.833 126.932 17.272 Z M 126.162 17.272 C 126.162 18.229 126.943 18.988 127.878 18.988 C 128.824 18.988 129.616 18.229 129.616 17.272 C 129.616 16.315 128.824 15.556 127.878 15.556 C 126.943 15.556 126.162 16.315 126.162 17.272 Z M 123.555 18.933 L 128.692 11.805 L 127.845 11.805 L 122.686 18.933 L 123.555 18.933 Z M 135.922 13.51 C 134.404 13.51 133.282 14.676 133.282 16.293 C 133.282 17.921 134.404 19.087 135.922 19.087 C 137.44 19.087 138.562 17.921 138.562 16.293 C 138.562 14.676 137.44 13.51 135.922 13.51 Z M 135.922 14.302 C 136.868 14.302 137.682 15.017 137.682 16.293 C 137.682 17.58 136.868 18.295 135.922 18.295 C 134.976 18.295 134.162 17.58 134.162 16.293 C 134.162 15.017 134.976 14.302 135.922 14.302 Z M 140.799 15.831 C 140.799 15.006 141.272 14.302 142.119 14.302 C 143.076 14.302 143.428 14.918 143.428 15.688 L 143.428 18.933 L 144.308 18.933 L 144.308 15.556 C 144.308 14.412 143.692 13.51 142.427 13.51 C 141.734 13.51 141.118 13.84 140.777 14.456 L 140.777 13.664 L 139.919 13.664 L 139.919 18.933 L 140.799 18.933 L 140.799 15.831 Z M 148.783 16.161 L 148.783 15.391 L 145.846 15.391 L 145.846 16.161 L 148.783 16.161 Z M 152.636 14.302 C 153.582 14.302 154.011 14.951 154.154 15.512 L 154.946 15.171 C 154.726 14.335 153.989 13.51 152.636 13.51 C 151.151 13.51 150.029 14.654 150.029 16.293 C 150.029 17.899 151.129 19.087 152.647 19.087 C 154 19.087 154.737 18.229 154.99 17.448 L 154.22 17.107 C 154.066 17.591 153.648 18.295 152.647 18.295 C 151.712 18.295 150.909 17.558 150.909 16.293 C 150.909 15.017 151.712 14.302 152.636 14.302 Z M 157.127 15.787 C 157.127 14.973 157.611 14.302 158.447 14.302 C 159.404 14.302 159.756 14.918 159.756 15.688 L 159.756 18.933 L 160.636 18.933 L 160.636 15.556 C 160.636 14.412 160.02 13.51 158.755 13.51 C 158.073 13.51 157.468 13.818 157.127 14.368 L 157.127 10.98 L 156.247 10.98 L 156.247 18.933 L 157.127 18.933 L 157.127 15.787 Z M 161.91 17.536 C 161.91 18.339 162.559 19.087 163.648 19.087 C 164.594 19.087 165.166 18.57 165.397 18.141 C 165.397 18.548 165.441 18.812 165.463 18.933 L 166.321 18.933 C 166.288 18.768 166.255 18.493 166.255 18.053 L 166.255 15.391 C 166.255 14.368 165.628 13.51 164.132 13.51 C 162.999 13.51 162.119 14.192 162.009 15.193 L 162.845 15.391 C 162.922 14.72 163.384 14.258 164.154 14.258 C 164.979 14.258 165.375 14.709 165.375 15.303 C 165.375 15.534 165.287 15.699 164.902 15.754 L 163.483 15.963 C 162.559 16.095 161.91 16.612 161.91 17.536 Z M 163.758 18.339 C 163.153 18.339 162.79 17.921 162.79 17.492 C 162.79 16.975 163.153 16.689 163.659 16.612 L 165.375 16.359 L 165.375 16.711 C 165.375 17.833 164.671 18.339 163.758 18.339 Z M 168.793 18.933 L 168.793 13.664 L 167.913 13.664 L 167.913 18.933 L 168.793 18.933 Z M 167.693 11.585 C 167.693 11.948 167.99 12.245 168.353 12.245 C 168.716 12.245 169.013 11.948 169.013 11.585 C 169.013 11.222 168.716 10.925 168.353 10.925 C 167.99 10.925 167.693 11.222 167.693 11.585 Z M 171.392 15.831 C 171.392 15.006 171.865 14.302 172.712 14.302 C 173.669 14.302 174.021 14.918 174.021 15.688 L 174.021 18.933 L 174.901 18.933 L 174.901 15.556 C 174.901 14.412 174.285 13.51 173.02 13.51 C 172.327 13.51 171.711 13.84 171.37 14.456 L 171.37 13.664 L 170.512 13.664 L 170.512 18.933 L 171.392 18.933 L 171.392 15.831 Z" fill="black"/>
  <defs>
    <linearGradient id="paint0_linear_1810_46" x1="33.5294" y1="7.20588" x2="47.888" y2="74.0171" gradientUnits="userSpaceOnUse">
      <stop stop-color="#ED1E79"/>
      <stop offset="1" stop-color="#522785"/>
    </linearGradient>
    <linearGradient id="paint1_linear_1810_46" x1="44.7958" y1="13.6484" x2="62.2866" y2="31.4386" gradientUnits="userSpaceOnUse">
      <stop offset="0.21" stop-color="#F15A24"/>
      <stop offset="0.6841" stop-color="#FBB03B"/>
    </linearGradient>
    <linearGradient id="paint2_linear_1810_46" x1="31.2044" y1="35.3515" x2="13.7136" y2="17.5614" gradientUnits="userSpaceOnUse">
      <stop offset="0.21" stop-color="#ED1E79"/>
      <stop offset="0.8929" stop-color="#522785"/>
    </linearGradient>
  </defs>
  <text style="fill: rgb(51, 51, 51); font-family: Arial, sans-serif; font-size: 14.5px; font-weight: 700; white-space: pre;" x="85.985" y="36.236">Rarity Calculator</text>
</svg>