<svg viewBox="0 0 1952 471" fill="none" class="next-0 e22dckz0"><g clip-path="url(#:r0:"><path d="M929.533 182.512H923.024V222.176H928.913C942.861 222.176 956.809 220.007 956.809 202.654C956.809 185.301 944.101 182.512 929.533 182.512Z" fill="white"></path><path d="M1189.58 196.457H1186.48L1170.98 267.726H1205.08L1195.16 226.514C1192.68 216.598 1191.13 206.372 1189.58 196.457Z" fill="white"></path><path d="M248.888 191.809C221.923 191.809 205.186 212.57 205.186 237.359C205.186 264.008 223.163 282.29 248.888 282.29C274.614 282.29 292.591 264.008 292.591 237.359C292.591 212.57 275.854 191.809 248.888 191.809V191.809Z" fill="white"></path><path d="M0 0V471H1952V0H0ZM248.888 356.039C177.6 356.039 119.64 311.108 119.64 236.12C119.64 161.132 177.91 114.961 248.888 114.961C319.866 114.961 378.136 162.681 378.136 236.12C378.136 309.559 320.176 356.039 248.888 356.039V356.039ZM616.796 256.881C616.796 325.052 574.023 356.039 508.624 356.039C443.225 356.039 400.453 325.052 400.453 256.881V118.68H485.378V248.824C485.378 267.107 485.998 283.22 508.624 283.22C531.251 283.22 531.871 267.107 531.871 248.824V118.68H616.796V256.881V256.881ZM817.642 194.597H770.84V352.32H685.915V194.391L639.112 194.597V118.68H817.642V194.597V194.597ZM1227.7 352.32L1219.95 323.193H1155.8L1148.98 352.32H961.768L923.025 277.332V352.32H839.959V118.68H942.551C995.243 118.68 1039.88 140.99 1039.88 199.865C1039.88 235.19 1027.63 249.599 996.069 260.135L1059.35 351.752L1140.35 118.731H1234.26L1317.64 352.372H1227.76L1227.7 352.32ZM1574.23 352.32H1493.02L1421.58 230.645C1421.58 230.645 1421.11 260.909 1421.11 276.403V352.32H1339.9V118.68H1421.42L1492.76 244.641C1492.76 244.641 1493.02 208.541 1493.02 188.71V118.68H1574.23V352.32ZM1733.85 352.32L1693.56 281.67C1688.6 272.684 1677.44 254.402 1677.44 254.402L1679.3 352.32H1596.54V118.68H1679.3L1677.44 220.007C1677.44 220.007 1686.43 202.034 1691.08 193.668L1731.99 118.68H1824.66L1751.52 232.401L1832.41 352.32H1733.85Z" fill="white"></path></g><defs><clipPath id=":r0:"><rect width="1952" height="471" fill="white"></rect></clipPath></defs></svg>